<?xml version="1.0" standalone="no"?>
<!DOCTYPE svg PUBLIC "-//W3C//DTD SVG 20010904//EN"
 "http://www.w3.org/TR/2001/REC-SVG-20010904/DTD/svg10.dtd">
<svg version="1.0" xmlns="http://www.w3.org/2000/svg"
 width="146.000000pt" height="146.000000pt" viewBox="0 0 146.000000 146.000000"
 preserveAspectRatio="xMidYMid meet">

<g transform="translate(0.000000,146.000000) scale(0.100000,-0.100000)"
fill="#000000" stroke="none">
<path d="M695 1410 c-11 -4 -49 -38 -85 -74 l-64 -66 74 -75 c67 -68 78 -75
113 -75 55 0 107 -52 107 -107 0 -35 7 -46 73 -111 65 -64 77 -72 111 -72 51
0 106 -52 106 -101 0 -84 -81 -139 -153 -104 -42 19 -72 74 -64 115 5 23 -4
36 -64 96 l-69 68 0 -181 0 -181 30 -32 c24 -26 30 -41 30 -77 0 -122 -171
-145 -210 -29 -13 41 6 97 39 118 20 12 21 21 21 199 l0 185 -25 22 c-32 28
-48 68 -40 101 5 22 -6 37 -70 101 l-75 75 -215 -215 c-220 -220 -238 -245
-215 -292 17 -33 609 -626 643 -644 17 -9 40 -13 56 -9 36 8 657 629 666 667
4 14 1 37 -5 50 -17 32 -609 626 -642 644 -30 16 -44 17 -73 4z"/>
</g>
</svg>
