<?xml version="1.0" standalone="no"?>
<!DOCTYPE svg PUBLIC "-//W3C//DTD SVG 20010904//EN"
 "http://www.w3.org/TR/2001/REC-SVG-20010904/DTD/svg10.dtd">
<svg version="1.0" xmlns="http://www.w3.org/2000/svg"
 width="900.000000pt" height="520.000000pt" viewBox="0 0 900.000000 520.000000"
 preserveAspectRatio="xMidYMid meet">

<g transform="translate(0.000000,520.000000) scale(0.100000,-0.100000)"
fill="#000000" stroke="none">
<path d="M3981 4980 c-30 -14 -104 -80 -228 -202 l-184 -182 216 -216 215
-215 92 0 c106 0 144 -15 212 -81 62 -60 81 -113 81 -221 l-1 -92 198 -198
198 -198 98 0 c111 0 148 -14 215 -82 65 -64 82 -106 82 -203 0 -76 -3 -91
-30 -139 -147 -266 -549 -163 -547 140 0 37 5 75 10 86 9 17 -14 44 -184 214
l-194 194 0 -508 0 -507 63 -63 c97 -95 121 -193 76 -313 -74 -197 -325 -250
-476 -102 -133 131 -106 368 51 453 l36 20 0 522 0 522 -27 15 c-44 23 -100
87 -124 141 -21 47 -25 101 -16 207 2 24 -28 58 -208 238 l-209 211 -582 -583
c-390 -392 -587 -596 -600 -623 -26 -57 -25 -157 3 -210 13 -24 374 -392 885
-902 851 -849 864 -861 921 -879 50 -15 66 -16 114 -6 31 6 73 23 92 37 67 46
1717 1708 1734 1747 24 51 22 151 -4 208 -15 35 -212 237 -862 888 -562 563
-859 853 -892 873 -63 36 -155 40 -224 9z"/>
<path d="M5595 1811 c-40 -17 -59 -50 -63 -113 -6 -82 14 -121 74 -144 79 -30
163 -3 190 61 31 75 8 162 -51 189 -35 17 -116 20 -150 7z"/>
<path d="M6095 1643 c-20 -122 -66 -184 -153 -209 l-53 -16 3 -66 3 -67 57 -3
57 -3 3 -257 c3 -253 3 -258 28 -307 39 -74 95 -100 220 -100 71 0 113 6 165
22 103 33 100 29 77 104 -22 71 -12 66 -119 53 -67 -9 -108 8 -122 48 -7 18
-11 116 -11 234 l0 204 115 0 115 0 0 80 0 80 -115 0 -114 0 -3 118 -3 117
-72 3 -72 3 -6 -38z"/>
<path d="M4817 1410 c-86 -22 -159 -80 -193 -155 -19 -39 -24 -67 -24 -130 0
-96 20 -146 78 -201 l41 -38 -65 -68 c-57 -61 -64 -73 -64 -109 0 -45 14 -77
42 -97 18 -13 17 -16 -16 -52 -54 -60 -61 -147 -16 -210 29 -40 103 -77 181
-90 85 -13 272 -13 342 1 85 17 176 67 213 116 69 91 68 228 -2 298 -48 48
-109 63 -324 81 -101 8 -186 17 -188 19 -2 2 4 18 15 35 18 31 19 32 73 26 80
-9 201 9 259 38 123 63 176 212 120 335 -24 54 -17 61 59 61 l52 0 0 70 0 70
-108 0 c-60 0 -183 2 -273 5 -90 2 -181 0 -202 -5z m233 -169 c35 -25 50 -58
50 -113 0 -85 -75 -139 -172 -124 -47 8 -65 19 -91 56 -33 48 -12 156 36 182
60 32 133 32 177 -1z m-100 -696 c156 -8 200 -21 200 -59 0 -63 -75 -90 -228
-84 -118 5 -155 23 -160 75 -3 28 32 88 46 79 4 -2 68 -7 142 -11z"/>
<path d="M5476 1374 c-10 -78 -9 -81 32 -95 65 -20 62 -9 62 -276 0 -186 -3
-245 -12 -248 -7 -2 -30 -6 -50 -10 l-38 -6 0 -64 0 -65 220 0 220 0 0 65 0
64 -37 6 c-21 4 -44 8 -50 10 -10 3 -13 79 -13 335 l0 330 -164 0 -163 0 -7
-46z"/>
</g>
</svg>
